

Release info:

General
Format                                   : Matroska
Format version                           : Version 2
File size                                : 694 MiB
Duration                                 : 1h 36mn
Overall bit rate                         : 1 006 Kbps


Video
ID                                       : 1
Format                                   : AVC
Format/Info                              : Advanced Video Codec
Format profile                           : High@L3.1
Format settings, CABAC                   : Yes
Format settings, ReFrames                : 4 frames
Muxing mode                              : Header stripping
Codec ID                                 : V_MPEG4/ISO/AVC
Duration                                 : 1h 36mn
Bit rate                                 : 876 Kbps
Width                                    : 960 pixels
Height                                   : 544 pixels
Display aspect ratio                     : 16:9
Frame rate mode                          : Constant
Frame rate                               : 25.000 fps
Color space                              : YUV
Chroma subsampling                       : 4:2:0
Bit depth                                : 8 bits
Scan type                                : Progressive
Bits/(Pixel*Frame)                       : 0.067
Stream size                              : 592 MiB (85%)
Language                                 : English
Default                                  : Yes
Forced                                   : No

Audio
ID                                       : 2
Format                                   : MPEG Audio
Format version                           : Version 1
Format profile                           : Layer 3
Mode                                     : Joint stereo
Mode extension                           : MS Stereo
Muxing mode                              : Header stripping
Codec ID                                 : A_MPEG/L3
Codec ID/Hint                            : MP3
Duration                                 : 1h 36mn
Bit rate mode                            : Constant
Bit rate                                 : 128 Kbps
Channel(s)                               : 2 channels
Sampling rate                            : 44.1 KHz
Compression mode                         : Lossy
Stream size                              : 88.4 MiB (13%)
Language                                 : English
Default                                  : Yes
Forced                                   : No

Source:
credit to original movie ripper ADTRG (Thanks)

IMDB Info:

As a wave of vampirism sweeps the world, a small but discordant group hole up in a country mansion in Victoria... 

Director: Tom Conyers
Stars: Anna Burgess, Clint Dowdell and Colin MacPherson

Genres: Drama | Horror | Romance
 
http://www.imdb.com/title/tt2140499/

Screen Shot:
 
http://www.shotpix.com/images/53488987335438428627.png 
http://www.shotpix.com/images/24042509766860588449.png 
http://www.shotpix.com/images/74947445814603122322.png 
http://www.shotpix.com/images/25275242951930712542.png 
http://www.shotpix.com/images/33213723554466716899.png 
http://www.shotpix.com/images/70348609055105690890.png